<?xml version="1.0" encoding="UTF-8" standalone="no" ?>
<!DOCTYPE svg PUBLIC "-//W3C//DTD SVG 1.1//EN" "http://www.w3.org/Graphics/SVG/1.1/DTD/svg11.dtd">
<svg xmlns="http://www.w3.org/2000/svg" xmlns:xlink="http://www.w3.org/1999/xlink" version="1.1" width="400" height="400" viewBox="0 0 500 500" xml:space="preserve">
<desc>Created with Fabric.js 4.6.0</desc>
<defs>
</defs>
<g transform="matrix(0.75 -0.75 0.75 0.75 250 250)" id="SWzc5b36oqFvLAymAzdPq"  >
<path style="stroke: rgb(190,131,96); stroke-width: 0; stroke-dasharray: none; stroke-linecap: butt; stroke-dashoffset: 0; stroke-linejoin: miter; stroke-miterlimit: 4; fill: rgb(0,0,0); fill-rule: nonzero; opacity: 1;" vector-effect="non-scaling-stroke"  transform=" translate(-220.63, -220.63)" d="M 220.62856 0 C 342.41553 0 441.25712 98.8416 441.25712 220.62856 C 441.25712 247.1721 436.5619 272.62567 427.95723 296.20352 L 364.45351999999997 296.20352 L 364.45351999999997 221.12852000000004 L 296.29809 221.12852000000004 L 296.29809 144.96904000000004 L 220.12852 144.96904000000004 L 220.12852 76.80352000000003 L 145.05352 76.80352000000003 L 145.05352 13.299910000000033 C 168.63138999999998 4.695220000000033 194.08499 3.197442310920451e-14 220.62856 3.197442310920451e-14 z M 296.20352 296.20352 L 277.98655 296.20352 L 277.98655 296.16507 L 145.12205000000003 296.16507 L 145.12205000000003 217.41788000000003 L 145.05352000000002 217.41788000000003 L 145.05352000000002 145.05352000000002 L 220.07904000000002 145.05352000000002 L 220.07904000000002 221.18809000000002 L 296.20352 221.18809000000002 z M 296.20352 364.45352 L 296.20352 427.95723000000004 C 272.62567 436.56190000000004 247.17210000000003 441.25712000000004 220.62856000000002 441.25712000000004 C 98.84159000000002 441.25712000000004 2.842170943040401e-14 342.41552 2.842170943040401e-14 220.62856000000005 C 2.842170943040401e-14 194.08499000000006 4.695230000000028 168.63139000000007 13.299910000000029 145.05352000000005 L 76.80352000000003 145.05352000000005 L 76.80352000000003 217.41788000000005 L 76.69507000000003 217.41788000000005 L 76.69507000000003 330.3392400000001 L 76.75102000000003 330.3392400000001 C 76.84652000000003 349.27290000000005 92.22464000000002 364.5920500000001 111.18074000000003 364.5920500000001 L 277.98655 364.5920500000001 L 277.98655 364.4535200000001 z" stroke-linecap="round" />
</g>
</svg>